/* XPM */
static char * bottom_left_inactive_xpm[] = {
"24 5 3 1",
" 	c None",
".	c #212121",
"#	c #393939",
"#.......................",
"#.......................",
"#.......................",
"#.......................",
"########################"};
